<svg xmlns="http://www.w3.org/2000/svg" viewBox="0 0 100 100">
  <!-- 배경 원 -->
  <circle cx="50" cy="50" r="48" fill="#f9ebea" stroke="#5d4037" stroke-width="2" />
  
  <!-- 양파 본체 -->
  <ellipse cx="50" cy="55" rx="35" ry="38" fill="#9c59b6" />
  
  <!-- 양파 내부 레이어 -->
  <ellipse cx="50" cy="55" rx="25" ry="28" fill="#b980d0" />
  <ellipse cx="50" cy="55" rx="15" ry="18" fill="#d4a6e3" />
  
  <!-- 양파 줄기 부분 -->
  <path d="M50,17 C55,23 60,17 60,12 L62,7 C62,7 52,5 50,5 C48,5 38,7 38,7 L40,12 C40,17 45,23 50,17" fill="#7d8e44" />
  
  <!-- 잎 부분 - 간략화 -->
  <path d="M40,20 C35,15 30,17 25,12 C33,10 37,15 40,20" fill="#87aa45" />
  <path d="M60,20 C65,15 70,17 75,12 C67,10 63,15 60,20" fill="#87aa45" />
  
  <!-- 창녕의 '창' 글자 - 단순화 -->
  <text x="50" y="60" font-family="Arial, sans-serif" font-size="18" text-anchor="middle" fill="#ffffff" font-weight="bold">창</text>
  
  <!-- 6차산업 아이콘 표현 - 하단에 작은 숫자로 -->
  <text x="50" y="90" font-family="Arial, sans-serif" font-size="10" text-anchor="middle" fill="#5d4037" font-weight="bold">6차산업</text>
</svg>