<?xml version="1.0" encoding="UTF-8" standalone="no"?>
<svg xmlns="http://www.w3.org/2000/svg" xmlns:xlink="http://www.w3.org/1999/xlink" width="800" height="600" viewBox="0 0 800 600">
  <defs>
    <!-- 패턴 정의 -->
    <pattern id="grass" patternUnits="userSpaceOnUse" width="10" height="10">
      <rect width="10" height="10" fill="#a1c99a"/>
      <path d="M0,0 L10,10 M10,0 L0,10" stroke="#8eb388" stroke-width="0.5"/>
    </pattern>
    <pattern id="onion-field" patternUnits="userSpaceOnUse" width="20" height="20">
      <rect width="20" height="20" fill="#b5d6a0"/>
      <circle cx="10" cy="10" r="3" fill="#6a0dad" opacity="0.3"/>
    </pattern>
    <pattern id="water" patternUnits="userSpaceOnUse" width="20" height="20">
      <rect width="20" height="20" fill="#a5d6f7"/>
      <path d="M0,10 Q5,5 10,10 Q15,15 20,10" stroke="#87c8f1" stroke-width="1" fill="none"/>
    </pattern>
    <pattern id="road" patternUnits="userSpaceOnUse" width="20" height="20">
      <rect width="20" height="20" fill="#aaa"/>
      <rect x="9" y="0" width="2" height="20" fill="#fff" opacity="0.5"/>
    </pattern>
    <!-- 그림자 필터 -->
    <filter id="shadow" x="-20%" y="-20%" width="140%" height="140%">
      <feGaussianBlur in="SourceAlpha" stdDeviation="3"/>
      <feOffset dx="3" dy="3" result="offsetblur"/>
      <feComponentTransfer>
        <feFuncA type="linear" slope="0.5"/>
      </feComponentTransfer>
      <feMerge>
        <feMergeNode/>
        <feMergeNode in="SourceGraphic"/>
      </feMerge>
    </filter>
  </defs>

  <!-- 배경 -->
  <rect width="800" height="600" fill="#e8f4ea"/>
  
  <!-- 원거리 산 -->
  <path d="M0,200 Q200,100 400,150 Q600,100 800,180 L800,300 L0,300 Z" fill="#c9dbc0"/>
  
  <!-- 양파 밭 -->
  <path d="M50,300 L750,300 L700,550 L100,550 Z" fill="url(#onion-field)"/>
  
  <!-- 주요 도로 -->
  <path d="M400,550 L400,320 Q400,300 420,300 L700,300" stroke="#888" stroke-width="10" fill="none"/>
  <path d="M400,400 L550,400" stroke="#888" stroke-width="8" fill="none"/>
  <path d="M400,450 L300,450" stroke="#888" stroke-width="8" fill="none"/>
  
  <!-- 주차장 -->
  <rect x="450" y="480" width="100" height="50" fill="#aaa"/>
  <rect x="460" y="485" width="80" height="5" fill="#fff"/>
  <rect x="460" y="495" width="80" height="5" fill="#fff"/>
  <rect x="460" y="505" width="80" height="5" fill="#fff"/>
  <rect x="460" y="515" width="80" height="5" fill="#fff"/>
  <text x="500" y="540" font-family="Arial" font-size="10" text-anchor="middle" fill="#555">주차장</text>
  
  <!-- 물 연못 -->
  <ellipse cx="200" cy="400" rx="70" ry="40" fill="url(#water)"/>
  
  <!-- 양파 역사문화관 (중앙 건물) -->
  <g transform="translate(400,350)" filter="url(#shadow)">
    <!-- 양파 모양의 건물 -->
    <path d="M0,-60 Q40,-40 50,0 Q60,50 0,60 Q-60,50 -50,0 Q-40,-40 0,-60" fill="#8e44ad" opacity="0.9"/>
    <path d="M0,-40 Q30,-30 35,0 Q40,30 0,40 Q-40,30 -35,0 Q-30,-30 0,-40" fill="#9b59b6"/>
    <ellipse cx="0" cy="-55" rx="5" ry="10" fill="#8e44ad"/>
    <!-- 문 -->
    <rect x="-10" y="30" width="20" height="25" fill="#eee"/>
    <!-- 창문 -->
    <rect x="-30" y="-10" width="15" height="15" rx="2" fill="#d5f5f9"/>
    <rect x="15" y="-10" width="15" height="15" rx="2" fill="#d5f5f9"/>
    <text x="0" y="70" font-family="Arial" font-size="10" text-anchor="middle" fill="#fff">양파 역사문화관</text>
  </g>
  
  <!-- 양파 가공지원센터 -->
  <g transform="translate(550,380)" filter="url(#shadow)">
    <rect x="-50" y="-30" width="100" height="60" fill="#3498db"/>
    <rect x="-40" y="-20" width="80" height="40" fill="#d5f5f9"/>
    <rect x="-15" y="10" width="30" height="20" fill="#2980b9"/>
    <path d="M-50,-30 L50,-30 L60,-40 L-40,-40 Z" fill="#2980b9"/>
    <text x="0" y="45" font-family="Arial" font-size="10" text-anchor="middle" fill="#fff">양파 가공지원센터</text>
  </g>
  
  <!-- 양파 푸드랩 -->
  <g transform="translate(500,300)" filter="url(#shadow)">
    <rect x="-40" y="-25" width="80" height="50" rx="5" fill="#e74c3c"/>
    <rect x="-35" y="-20" width="70" height="40" rx="3" fill="#fad7a0"/>
    <rect x="-25" y="-15" width="15" height="15" fill="#d5f5f9"/>
    <rect x="10" y="-15" width="15" height="15" fill="#d5f5f9"/>
    <rect x="-25" y="5" width="50" height="10" fill="#d5f5f9"/>
    <text x="0" y="40" font-family="Arial" font-size="10" text-anchor="middle" fill="#fff">양파 푸드랩</text>
  </g>
  
  <!-- 양파 마켓 -->
  <g transform="translate(300,450)" filter="url(#shadow)">
    <path d="M-40,-30 L40,-30 L50,-20 L30,20 L-30,20 L-50,-20 Z" fill="#27ae60"/>
    <path d="M-30,-30 L30,-30 L20,0 L-20,0 Z" fill="#2ecc71"/>
    <rect x="-25" y="0" width="50" height="20" fill="#ecf0f1"/>
    <rect x="-20" y="5" width="10" height="15" fill="#3498db"/>
    <rect x="10" y="5" width="10" height="15" fill="#3498db"/>
    <text x="0" y="35" font-family="Arial" font-size="10" text-anchor="middle" fill="#fff">양파 마켓</text>
  </g>
  
  <!-- 양파 체험장 -->
  <g transform="translate(230,350)" filter="url(#shadow)">
    <!-- 온실 -->
    <path d="M-40,-20 Q-40,-40 0,-40 Q40,-40 40,-20 L40,20 L-40,20 Z" fill="#a5d6a7" opacity="0.6" stroke="#2e7d32" stroke-width="1"/>
    <!-- 작은 건물 -->
    <rect x="-15" y="0" width="30" height="20" fill="#4caf50"/>
    <rect x="-10" y="10" width="20" height="10" fill="#81c784"/>
    <text x="0" y="35" font-family="Arial" font-size="10" text-anchor="middle" fill="#fff">양파 체험장</text>
  </g>
  
  <!-- 양파 창업지원센터 -->
  <g transform="translate(650,350)" filter="url(#shadow)">
    <rect x="-40" y="-30" width="80" height="60" fill="#34495e"/>
    <rect x="-35" y="-25" width="70" height="50" fill="#ecf0f1"/>
    <rect x="-30" y="-20" width="15" height="10" fill="#3498db"/>
    <rect x="-10" y="-20" width="15" height="10" fill="#3498db"/>
    <rect x="15" y="-20" width="15" height="10" fill="#3498db"/>
    <rect x="-30" y="-5" width="15" height="10" fill="#3498db"/>
    <rect x="-10" y="-5" width="15" height="10" fill="#3498db"/>
    <rect x="15" y="-5" width="15" height="10" fill="#3498db"/>
    <rect x="-30" y="10" width="15" height="10" fill="#3498db"/>
    <rect x="-10" y="10" width="15" height="10" fill="#3498db"/>
    <rect x="15" y="10" width="15" height="10" fill="#3498db"/>
    <rect x="-15" y="25" width="30" height="5" fill="#34495e"/>
    <text x="0" y="45" font-family="Arial" font-size="10" text-anchor="middle" fill="#fff">양파 창업지원센터</text>
  </g>
  
  <!-- 나무 및 조경 -->
  <g>
    <!-- 나무들 -->
    <g transform="translate(150,320)">
      <circle cx="0" cy="0" r="15" fill="#2ecc71"/>
      <rect x="-2" y="15" width="4" height="10" fill="#795548"/>
    </g>
    <g transform="translate(180,310)">
      <circle cx="0" cy="0" r="10" fill="#2ecc71"/>
      <rect x="-2" y="10" width="4" height="8" fill="#795548"/>
    </g>
    <g transform="translate(500,280)">
      <circle cx="0" cy="0" r="12" fill="#2ecc71"/>
      <rect x="-2" y="12" width="4" height="8" fill="#795548"/>
    </g>
    <g transform="translate(530,270)">
      <circle cx="0" cy="0" r="8" fill="#2ecc71"/>
      <rect x="-1.5" y="8" width="3" height="6" fill="#795548"/>
    </g>
    <g transform="translate(330,280)">
      <circle cx="0" cy="0" r="10" fill="#2ecc71"/>
      <rect x="-1.5" y="10" width="3" height="8" fill="#795548"/>
    </g>
    
    <!-- 더 많은 나무들 추가 -->
    <g transform="translate(680,320)">
      <circle cx="0" cy="0" r="12" fill="#2ecc71"/>
      <rect x="-2" y="12" width="4" height="8" fill="#795548"/>
    </g>
    <g transform="translate(120,380)">
      <circle cx="0" cy="0" r="10" fill="#2ecc71"/>
      <rect x="-1.5" y="10" width="3" height="8" fill="#795548"/>
    </g>
    <g transform="translate(600,420)">
      <circle cx="0" cy="0" r="15" fill="#2ecc71"/>
      <rect x="-2" y="15" width="4" height="10" fill="#795548"/>
    </g>
  </g>
  
  <!-- 작은 양파 밭들 -->
  <rect x="280" y="380" width="60" height="40" fill="url(#onion-field)"/>
  <rect x="450" y="340" width="40" height="30" fill="url(#onion-field)"/>
  
  <!-- 추가 정보 -->
  <g transform="translate(400, 230)">
    <rect x="-180" y="-20" width="360" height="40" rx="5" fill="#8e44ad" opacity="0.85"/>
    <text x="0" y="0" font-family="Arial" font-size="20" font-weight="bold" text-anchor="middle" fill="#fff">창녕 양파밸리 조감도</text>
    <text x="0" y="15" font-family="Arial" font-size="12" text-anchor="middle" fill="#fff">창녕 양파의 생산, 가공, 체험, 판매, 전시가 통합된 복합 공간</text>
  </g>
  
  <!-- 축척 및 방위 -->
  <g transform="translate(700, 550)">
    <path d="M0,0 L0,-30 L-10,-20 L0,-30 L10,-20 Z" fill="#333"/>
    <text x="0" y="-5" font-family="Arial" font-size="12" text-anchor="middle" fill="#333">N</text>
  </g>
  
  <!-- 축척 -->
  <g transform="translate(70, 530)">
    <rect x="0" y="0" width="100" height="2" fill="#333"/>
    <rect x="0" y="-3" width="2" height="8" fill="#333"/>
    <rect x="100" y="-3" width="2" height="8" fill="#333"/>
    <rect x="50" y="-3" width="2" height="8" fill="#333"/>
    <text x="50" y="15" font-family="Arial" font-size="10" text-anchor="middle" fill="#333">0 100 200m</text>
  </g>
</svg>
